<svg width="111" height="54" viewBox="0 0 111 54" fill="none" xmlns="http://www.w3.org/2000/svg">
<g clip-path="url(#clip0_40_63)">
<path d="M152.508 -41.5H-42.8203V98.5H152.508V-41.5Z" fill="white"/>
<path fill-rule="evenodd" clip-rule="evenodd" d="M27.7192 7.67573C27.824 7.6696 27.9213 7.69393 28.0111 7.74905C33.8706 11.112 39.7127 14.499 45.5373 17.9101C39.6546 21.342 33.7639 24.7615 27.8651 28.1688C27.8165 28.2013 27.7678 28.2013 27.7192 28.1688C21.8518 24.7491 15.9773 21.3378 10.0957 17.9346C15.9714 14.5144 21.8459 11.0947 27.7192 7.67573Z" fill="#389FF8"/>
<path fill-rule="evenodd" clip-rule="evenodd" d="M24.3129 13.6846C28.3386 15.5007 32.3468 17.3571 36.3376 19.2536C35.5474 19.76 34.7441 20.2486 33.9278 20.719C33.2501 20.4361 32.5847 20.1267 31.9318 19.7908C30.8974 20.3955 29.8669 21.006 28.8404 21.6227C29.1757 22.0406 29.4921 22.4722 29.7898 22.9174C29.8376 22.9788 29.8538 23.0439 29.8384 23.1127C29.0432 23.585 28.2481 24.0572 27.453 24.5295C25.323 21.5699 23.2215 18.59 21.1484 15.5898C21.1716 15.542 21.2041 15.5012 21.2458 15.4676C22.2871 14.8966 23.3094 14.3023 24.3129 13.6846Z" fill="#FDFEFF"/>
<path fill-rule="evenodd" clip-rule="evenodd" d="M25.2842 16.6641C26.666 17.2344 28.0453 17.8532 29.4222 18.5205C28.8154 18.9147 28.1988 19.2973 27.5723 19.6685C27.5236 19.701 27.4748 19.701 27.4262 19.6685C26.7188 18.6582 26.0048 17.6567 25.2842 16.6641Z" fill="#389FF8"/>
<path fill-rule="evenodd" clip-rule="evenodd" d="M45.7347 18.4717C45.7998 21.8424 45.8322 25.2293 45.8322 28.6327C45.824 32.0197 45.816 35.4068 45.8078 38.7937C39.9504 42.2293 34.0921 45.6651 28.2331 49.1012C28.1871 49.0815 28.1547 49.0489 28.1357 49.0036C28.1032 42.246 28.1032 35.4882 28.1357 28.7304C34.0171 25.328 39.8834 21.9085 45.7347 18.4717Z" fill="#389FF8"/>
<path fill-rule="evenodd" clip-rule="evenodd" d="M9.85066 18.5205C15.744 21.9047 21.6265 25.3079 27.4985 28.7304C27.539 35.537 27.531 42.3434 27.4741 49.1501C21.6357 45.6548 15.7694 42.2026 9.87508 38.7936C9.85066 32.0359 9.84264 25.2781 9.85066 18.5205Z" fill="#389FF8"/>
<path fill-rule="evenodd" clip-rule="evenodd" d="M42.4229 23.7969C42.4878 28.1691 42.4878 32.5493 42.4229 36.9378C41.6238 37.3916 40.8368 37.8637 40.0619 38.3544C40.0457 35.912 40.0293 33.4693 40.0131 31.0268C38.9911 33.6721 37.9932 36.3262 37.0191 38.9895C36.0973 37.3884 35.1642 35.7926 34.2199 34.2022C34.2036 36.7261 34.1874 39.2501 34.1712 41.7741C33.3393 42.2686 32.5038 42.7573 31.664 43.2396C31.599 38.8268 31.599 34.4138 31.664 30.001C32.4834 29.5328 33.2947 29.0525 34.0981 28.5599C34.1593 28.5119 34.2244 28.4956 34.2929 28.511C35.1916 30.062 36.084 31.6171 36.9705 33.1762C37.892 30.5893 38.8088 28.0002 39.7211 25.409C40.6329 24.8849 41.5337 24.3474 42.4229 23.7969Z" fill="#FDFEFF"/>
<path fill-rule="evenodd" clip-rule="evenodd" d="M16.0842 25.165C16.9777 25.7271 17.8783 26.2808 18.7862 26.826C18.8268 31.467 18.8186 36.1078 18.7619 40.7486C17.8856 40.2275 17.0092 39.7065 16.133 39.1853C16.0842 34.5121 16.068 29.8386 16.0842 25.165Z" fill="white"/>
<path fill-rule="evenodd" clip-rule="evenodd" d="M56.4062 7.6748C57.272 7.6748 58.1565 7.6748 59.0223 7.6748C59.0223 14.2489 59.0223 21.0508 59.0223 27.6248C58.1565 27.6248 57.272 27.6248 56.4062 27.6248C56.4062 21.0508 56.4062 14.2489 56.4062 7.6748Z" fill="black"/>
<path fill-rule="evenodd" clip-rule="evenodd" d="M79.4268 7.69055H82.0428L88.1682 24.1465L94.4252 7.69055L97.0412 7.6748C97.0412 14.2749 97.0412 21.0249 97.0412 27.625C96.2087 27.625 95.2576 27.625 94.4252 27.625V13.0998L89.542 27.6248H86.926L82.0428 13.0998V27.625H79.4268V7.69055Z" fill="black"/>
<path fill-rule="evenodd" clip-rule="evenodd" d="M77.3344 27.625H74.7184C74.1958 25.8787 72.6256 22.1963 72.6256 22.1963H65.824C65.824 22.1963 64.1774 25.8174 63.7452 27.625H61.1152L67.9168 7.6748L70.5328 7.67498L77.3344 27.625Z" fill="black"/>
<path fill-rule="evenodd" clip-rule="evenodd" d="M69.1573 11.1748C70.3225 14.0159 71.304 16.9327 72.1019 19.9248C70.1835 19.9248 68.2651 19.9248 66.3467 19.9248C67.2032 16.9817 68.14 14.0649 69.1573 11.1748Z" fill="#FDFEFF"/>
<path fill-rule="evenodd" clip-rule="evenodd" d="M59.0353 29.4619C59.0353 29.4619 60.1555 29.7837 60.6403 30.1794C60.7564 30.2961 60.8665 30.4244 60.7793 30.6869C60.7793 30.6869 58.8447 36.1448 57.9193 38.948C57.9367 39.0005 57.9542 39.053 57.9716 39.1055C58.7782 37.8406 59.7725 36.7379 60.9542 35.7976C61.6513 35.2429 62.5233 35.3244 63.1337 35.8494C63.2809 35.9761 63.5697 36.1994 63.4657 36.4276L62.0001 40.3994C61.7959 41.0133 61.3907 42.1711 61.896 42.3608C62.4014 42.5505 62.8662 42.1713 63.2209 41.8358C63.9185 41.1757 64.6161 40.3119 64.9832 39.4205C64.9832 39.4205 65.9077 36.7251 66.2914 35.3251C66.3875 34.9744 67.2199 34.979 67.7565 35.3251C67.8967 35.4497 68.0418 35.5628 67.9658 35.7976L66.0985 40.4869C65.8369 41.0994 65.5845 42.2373 66.2914 42.4658C66.7537 42.6153 67 42.1862 67.338 41.9114C68.7145 40.2244 69.9353 38.2994 71.0007 36.2176C70.2656 35.2747 70.3354 34.3822 71.21 33.5399C71.5921 33.2244 72.1474 33.4635 72.5182 33.8549C72.6751 34.0207 72.7194 34.252 72.6751 34.4324C72.5937 34.7637 72.5059 35.0579 72.6228 35.4301C72.8155 36.0442 73.4479 36.1588 73.931 36.4276C74.3942 36.7095 74.6741 37.1637 74.5065 37.6353C73.9465 39.2105 72.4777 42.6744 73.4233 42.6744C74.3689 42.6744 75.2545 41.4494 75.2545 41.4494C75.2545 41.4494 75.8675 40.5405 76.5625 39.2619C77.0857 38.2994 77.9577 35.4119 77.9577 35.4119C78.0449 35.0619 79.0139 35.0341 79.4774 35.2726C79.7088 35.3916 79.7585 35.62 79.6867 35.8501C79.0547 37.8757 78.4966 39.9234 78.0123 41.9933C77.9429 42.2905 78.0623 42.3986 78.2739 42.4658C78.6553 42.5869 79.3576 42.145 79.7889 41.7119C80.3892 41.0322 80.5737 40.7494 81.3088 39.2105C81.9311 37.9079 82.6529 35.6401 82.6529 35.6401C82.7401 35.1151 83.6138 35.1946 84.0298 35.6401C84.2745 35.9023 84.2343 35.9756 84.1867 36.1651C83.8835 37.374 82.6529 40.0494 82.6529 40.0494C83.527 38.5246 85.1304 36.828 86.3843 35.5876C87.301 34.7693 88.1557 34.8218 88.9484 35.7451C89.1057 35.9283 89.0459 36.1994 88.9484 36.4801C88.4081 38.0369 87.7105 39.6119 87.2745 41.0994C87.2745 41.0994 86.9196 42.0848 87.3263 42.3608C87.7426 42.6433 88.1486 42.0882 88.4775 41.7831C88.9867 41.3073 89.4576 40.7996 89.8901 40.2606C90.3821 38.2989 91.4461 36.7412 93.082 35.5876C94.0138 34.9247 94.9207 34.5742 96.0123 34.8869C96.9537 35.1566 97.6344 35.7105 97.739 36.3751C97.8119 36.8376 97.777 37.2928 97.6344 37.7403C97.1549 39.2885 96.6143 40.8112 96.0123 42.3083C97.3907 41.6274 98.5233 40.3994 99.4134 39.3155C99.5529 39.4555 99.6925 39.5955 99.832 39.7355C99.9441 39.848 99.8874 40.0494 99.6227 40.3656C98.521 41.6816 97.1253 43.0452 95.6457 43.8994C94.7737 45.2994 94.171 46.5981 93.1169 47.5744C91.9833 48.6244 90.6753 49.2821 89.7161 49.0619C89.1929 48.9419 88.4081 48.2744 88.4081 47.3119C88.4081 46.225 89.2967 45.6162 90.2566 45.1437C91.3684 44.6258 92.4322 44.3968 93.5529 43.8994C93.8921 43.2992 94.2236 42.3906 94.4425 41.7306L94.3377 41.6244C93.6792 43.0475 92.3757 43.8994 90.9369 43.8994C90.0649 43.8994 89.7161 42.8494 89.6809 41.9408C89.0753 42.9168 88.1702 43.8994 87.1001 43.8994C85.7752 43.8803 85.253 42.5869 85.4949 41.2056C85.9318 39.6455 86.4724 38.1228 87.117 36.6376C87.0821 36.5851 87.0472 36.5326 87.0124 36.4801C86.1841 37.0133 85.4691 37.6785 84.8669 38.4753C84.3723 39.1471 83.9189 39.8473 83.5066 40.5756C82.9127 41.6244 82.1433 43.8994 81.7073 43.8994C81.2713 43.8994 80.1377 43.6369 80.3147 42.2558C79.7938 42.9709 79.3529 43.4619 78.4809 43.7244C77.5595 44.0058 76.7369 44.0744 76.3902 42.9908C76.2725 42.5447 76.2027 42.0896 76.1809 41.6256C75.5949 42.5638 74.8185 43.4887 73.8263 43.7785C72.8129 44.0744 71.8066 43.9099 71.6809 42.5708C71.5921 41.6244 71.7665 40.8369 72.0281 39.6305L72.5513 36.9869L72.1889 36.6369L70.3204 39.6305C69.5412 41.0698 68.5469 42.3475 67.338 43.4633C66.0985 44.3369 64.5805 43.8998 64.46 41.8358C63.8606 42.718 63.1337 43.4619 62.1054 43.7785C60.8665 44.0744 60.0646 43.8264 60.0646 42.2558C60.0646 41.2744 60.1689 40.4869 60.5357 39.368C60.8501 38.5612 61.3897 36.8994 61.3897 36.8994L61.2681 36.7951C61.0119 36.9528 60.8665 37.0744 60.6049 37.3369C58.8445 39.1034 57.5498 41.2275 56.5065 43.516C56.1905 44.2093 54.9202 43.8784 54.7274 43.2008C54.7048 43.1208 54.5947 42.8883 54.7274 42.4658C56.0885 38.1409 57.5709 33.748 59.0353 29.4619Z" fill="#FDBF43"/>
<path fill-rule="evenodd" clip-rule="evenodd" d="M67.8494 31.44C68.6881 31.1495 69.7851 32.1045 68.9483 33.4352C68.5052 34.0706 67.8203 34.3971 67.2214 34.0127C66.5843 33.6037 66.6738 32.7465 67.1691 32.07C67.3486 31.8252 67.5076 31.5583 67.8494 31.44Z" fill="#FDBF43"/>
<path fill-rule="evenodd" clip-rule="evenodd" d="M79.2849 31.7027C80.1236 31.4122 81.2207 32.3672 80.3838 33.6979C79.9406 34.3333 79.2557 34.6598 78.657 34.2754C78.02 33.8664 78.1092 33.0092 78.6047 32.3327C78.784 32.0879 78.9432 31.821 79.2849 31.7027Z" fill="#FDBF43"/>
<path fill-rule="evenodd" clip-rule="evenodd" d="M95.7802 36.2165C95.8976 36.1726 96.0273 36.2162 95.9874 36.3623C95.3435 38.7127 94.0315 40.6561 92.0512 42.1924C91.9404 42.2783 91.6044 42.4425 91.637 42.1924C92.0132 39.3418 92.8991 37.2989 95.7802 36.2165Z" fill="#EFF2F7"/>
<path fill-rule="evenodd" clip-rule="evenodd" d="M92.9951 45.1483C93.1169 45.0965 93.2302 45.1313 93.1992 45.2495C92.7845 46.6218 91.9002 47.5491 90.5464 48.0316C90.1979 48.1219 89.6594 48.1664 89.5771 47.8799C89.4412 47.4077 89.708 46.8176 90.2403 46.5142C91.1043 46.0216 92.0577 45.5456 92.9951 45.1483Z" fill="#EFF2F7"/>
</g>
<defs>
<clipPath id="clip0_40_63">
<rect width="111" height="54" rx="8" fill="white"/>
</clipPath>
</defs>
</svg>
