<svg width="47" height="51" viewBox="0 0 47 51" fill="none" xmlns="http://www.w3.org/2000/svg">
<g clip-path="url(#clip0_50_122)">
<path d="M153.004 -46.3164H-49.3633V99.3979H153.004V-46.3164Z" fill="white"/>
<path fill-rule="evenodd" clip-rule="evenodd" d="M23.7185 4.8662C23.8271 4.85982 23.9279 4.88514 24.021 4.94251C30.0916 8.44275 36.1442 11.9679 42.1787 15.5183C36.084 19.0903 29.981 22.6493 23.8697 26.1957C23.8193 26.2295 23.7689 26.2295 23.7185 26.1957C17.6397 22.6364 11.5536 19.0859 5.45996 15.5438C11.5474 11.984 17.6336 8.42472 23.7185 4.8662Z" fill="#389FF8"/>
<path fill-rule="evenodd" clip-rule="evenodd" d="M20.1887 11.1211C24.3594 13.0114 28.5121 14.9435 32.6467 16.9174C31.828 17.4445 30.9958 17.9531 30.15 18.4427C29.4479 18.1482 28.7586 17.8261 28.0821 17.4766C27.0104 18.1059 25.9428 18.7414 24.8793 19.3833C25.2267 19.8182 25.5545 20.2674 25.8629 20.7308C25.9124 20.7947 25.9292 20.8625 25.9133 20.934C25.0894 21.4256 24.2656 21.9171 23.4419 22.4087C21.2352 19.3283 19.058 16.2267 16.9102 13.1041C16.9342 13.0544 16.9678 13.0119 17.011 12.9769C18.0898 12.3826 19.149 11.7641 20.1887 11.1211Z" fill="#FDFEFF"/>
<path fill-rule="evenodd" clip-rule="evenodd" d="M21.1953 14.2217C22.6269 14.8153 24.0559 15.4593 25.4824 16.1539C24.8538 16.5642 24.2149 16.9624 23.5659 17.3487C23.5155 17.3826 23.4649 17.3826 23.4145 17.3487C22.6816 16.2972 21.9419 15.2548 21.1953 14.2217Z" fill="#389FF8"/>
<path fill-rule="evenodd" clip-rule="evenodd" d="M42.3825 16.1035C42.4499 19.6118 42.4835 23.137 42.4835 26.6793C42.475 30.2045 42.4667 33.7298 42.4582 37.255C36.3897 40.8309 30.3203 44.4069 24.2502 47.9833C24.2025 47.9627 24.1689 47.9288 24.1492 47.8816C24.1156 40.8482 24.1156 33.8145 24.1492 26.7809C30.2426 23.2397 36.3203 19.6806 42.3825 16.1035Z" fill="#389FF8"/>
<path fill-rule="evenodd" clip-rule="evenodd" d="M5.20526 16.1543C11.311 19.6766 17.4055 23.2187 23.4891 26.7809C23.531 33.8653 23.5227 40.9496 23.4638 48.034C17.415 44.3961 11.3373 40.803 5.23056 37.2548C5.20526 30.2214 5.19695 23.1877 5.20526 16.1543Z" fill="#389FF8"/>
<path fill-rule="evenodd" clip-rule="evenodd" d="M38.952 21.6455C39.0193 26.1962 39.0193 30.7552 38.952 35.3228C38.1241 35.7951 37.3087 36.2865 36.5059 36.7972C36.4891 34.2551 36.4721 31.7127 36.4553 29.1706C35.3965 31.9238 34.3627 34.6862 33.3535 37.4582C32.3984 35.7918 31.4318 34.1309 30.4534 32.4755C30.4366 35.1024 30.4198 37.7294 30.4029 40.3565C29.5411 40.8712 28.6754 41.3798 27.8054 41.8818C27.738 37.2889 27.738 32.6958 27.8054 28.1028C28.6543 27.6156 29.4948 27.1156 30.3272 26.6029C30.3907 26.553 30.4581 26.536 30.5291 26.5521C31.4601 28.1664 32.3847 29.7849 33.3031 31.4076C34.2579 28.7152 35.2077 26.0204 36.1529 23.3234C37.0975 22.7779 38.0307 22.2185 38.952 21.6455Z" fill="#FDFEFF"/>
<path fill-rule="evenodd" clip-rule="evenodd" d="M11.6635 23.0693C12.5892 23.6544 13.5222 24.2307 14.4629 24.7981C14.505 29.6285 14.4965 34.4587 14.4378 39.289C13.5298 38.7466 12.6219 38.2043 11.7141 37.6619C11.6635 32.7979 11.6467 27.9336 11.6635 23.0693Z" fill="white"/>
</g>
<defs>
<clipPath id="clip0_50_122">
<rect width="47" height="51" rx="8" fill="white"/>
</clipPath>
</defs>
</svg>
