<svg width="516" height="237" viewBox="0 0 516 237" fill="none" xmlns="http://www.w3.org/2000/svg">
<g clip-path="url(#clip0_5_92)">
<path fill-rule="evenodd" clip-rule="evenodd" d="M102.474 0.00503382C103.075 -0.0299662 103.633 0.10904 104.148 0.42404C137.746 19.641 171.244 38.995 204.642 58.487C170.911 78.098 137.134 97.638 103.311 117.108C103.032 117.294 102.753 117.294 102.474 117.108C68.831 97.567 35.147 78.074 1.422 58.627C35.113 39.083 68.797 19.542 102.474 0.00503382Z" fill="#389FF8"/>
<path fill-rule="evenodd" clip-rule="evenodd" d="M82.9419 34.34C106.025 44.718 129.008 55.326 151.891 66.163C147.36 69.057 142.754 71.849 138.073 74.537C134.187 72.92 130.372 71.152 126.628 69.233C120.697 72.688 114.788 76.177 108.902 79.701C110.825 82.089 112.639 84.555 114.346 87.099C114.62 87.45 114.713 87.822 114.625 88.215C110.065 90.914 105.506 93.612 100.947 96.311C88.7339 79.399 76.6839 62.371 64.7969 45.227C64.9299 44.954 65.1159 44.721 65.3549 44.529C71.3259 41.266 77.1879 37.87 82.9419 34.34Z" fill="#FDFEFF"/>
<path fill-rule="evenodd" clip-rule="evenodd" d="M88.5081 51.3669C96.4311 54.6259 104.34 58.1619 112.235 61.9749C108.756 64.2279 105.22 66.4139 101.628 68.5349C101.349 68.7209 101.069 68.7209 100.79 68.5349C96.7341 62.7619 92.6401 57.0389 88.5081 51.3669Z" fill="#389FF8"/>
<path fill-rule="evenodd" clip-rule="evenodd" d="M205.77 61.6951C206.143 80.9561 206.329 100.31 206.329 119.758C206.282 139.112 206.236 158.467 206.189 177.821C172.603 197.453 139.012 217.086 105.417 236.721C105.153 236.608 104.967 236.422 104.858 236.163C104.672 197.548 104.672 158.932 104.858 120.316C138.582 100.874 172.219 81.3341 205.77 61.6951Z" fill="#389FF8"/>
<path fill-rule="evenodd" clip-rule="evenodd" d="M0.0169725 61.973C33.809 81.311 67.539 100.758 101.209 120.315C101.441 159.21 101.395 198.104 101.069 236.999C67.592 217.026 33.955 197.299 0.156987 177.819C0.0169871 139.204 -0.0290275 100.588 0.0169725 61.973Z" fill="#389FF8"/>
<path fill-rule="evenodd" clip-rule="evenodd" d="M186.783 92.125C187.155 117.109 187.155 142.139 186.783 167.216C182.201 169.809 177.688 172.507 173.245 175.311C173.152 161.354 173.058 147.396 172.965 133.439C167.105 148.555 161.383 163.721 155.798 178.94C150.512 169.791 145.162 160.672 139.747 151.584C139.654 166.006 139.561 180.429 139.468 194.852C134.698 197.678 129.907 200.47 125.092 203.226C124.719 178.01 124.719 152.793 125.092 127.577C129.79 124.902 134.442 122.157 139.049 119.342C139.4 119.068 139.773 118.975 140.166 119.063C145.319 127.926 150.436 136.812 155.519 145.721C160.803 130.939 166.06 116.144 171.291 101.337C176.519 98.342 181.684 95.271 186.783 92.125Z" fill="#FDFEFF"/>
<path fill-rule="evenodd" clip-rule="evenodd" d="M35.7609 99.941C40.8839 103.153 46.0479 106.317 51.2539 109.432C51.4869 135.952 51.4399 162.471 51.1149 188.99C46.0899 186.012 41.0649 183.035 36.0409 180.057C35.7609 153.353 35.6679 126.647 35.7609 99.941Z" fill="#FDFEFF"/>
<path fill-rule="evenodd" clip-rule="evenodd" d="M266.961 0C271.925 0 276.997 0 281.961 0C281.961 37.566 281.961 76.434 281.961 114C276.997 114 271.925 114 266.961 114C266.961 76.434 266.961 37.566 266.961 0Z" fill="#EAEDF0"/>
<path fill-rule="evenodd" clip-rule="evenodd" d="M398.961 0.0899963H413.961L449.084 94.124L484.961 0.0899963L499.961 0C499.961 37.715 499.961 76.286 499.961 114.001C495.188 114.001 489.734 114.001 484.961 114.001V31L456.961 114H441.961L413.961 31V114.001H398.961V0.0899963Z" fill="#EAEDF0"/>
<path fill-rule="evenodd" clip-rule="evenodd" d="M386.961 114.001H371.961C368.964 104.022 359.961 82.98 359.961 82.98H320.961C320.961 82.98 311.519 103.672 309.041 114.001H293.961L332.961 0L347.961 0.00100708L386.961 114.001Z" fill="#EAEDF0"/>
<path fill-rule="evenodd" clip-rule="evenodd" d="M340.077 20C346.758 36.235 352.386 52.902 356.961 70C345.961 70 334.961 70 323.961 70C328.872 53.182 334.244 36.515 340.077 20Z" fill="#FDFEFF"/>
<path fill-rule="evenodd" clip-rule="evenodd" d="M282.039 124.496C282.039 124.496 288.462 126.335 291.242 128.596C291.908 129.263 292.539 129.996 292.039 131.496C292.039 131.496 280.946 162.684 275.64 178.702C275.74 179.002 275.84 179.302 275.94 179.602C280.565 172.374 286.266 166.073 293.042 160.7C297.039 157.53 302.039 157.996 305.539 160.996C306.383 161.72 308.039 162.996 307.443 164.3L299.039 186.996C297.868 190.504 295.545 197.12 298.442 198.204C301.34 199.288 304.005 197.121 306.039 195.204C310.039 191.432 314.039 186.496 316.144 181.402C316.144 181.402 321.445 166 323.645 158C324.196 155.996 328.969 156.022 332.046 158C332.85 158.712 333.682 159.358 333.246 160.7L322.539 187.496C321.039 190.996 319.592 197.498 323.645 198.804C326.296 199.658 327.708 197.206 329.646 195.636C337.539 185.996 344.539 174.996 350.648 163.1C346.433 157.712 346.833 152.612 351.848 147.799C354.039 145.996 357.223 147.362 359.349 149.599C360.249 150.546 360.503 151.868 360.249 152.899C359.782 154.792 359.279 156.473 359.949 158.6C361.054 162.109 364.68 162.764 367.45 164.3C370.106 165.911 371.711 168.506 370.75 171.201C367.539 180.202 359.117 199.996 364.539 199.996C369.961 199.996 375.039 192.996 375.039 192.996C375.039 192.996 378.554 187.802 382.539 180.496C385.539 174.996 390.539 158.496 390.539 158.496C391.039 156.496 396.595 156.337 399.253 157.7C400.58 158.38 400.865 159.685 400.453 161C396.829 172.575 393.629 184.276 390.852 196.104C390.454 197.802 391.139 198.42 392.352 198.804C394.539 199.496 398.566 196.971 401.039 194.496C404.481 190.612 405.539 188.996 409.754 180.202C413.322 172.759 417.461 159.8 417.461 159.8C417.961 156.8 422.971 157.254 425.356 159.8C426.759 161.298 426.529 161.717 426.256 162.8C424.517 169.708 417.461 184.996 417.461 184.996C422.473 176.283 431.667 166.588 438.857 159.5C444.113 154.824 449.014 155.124 453.559 160.4C454.461 161.447 454.118 162.996 453.559 164.6C450.461 173.496 446.461 182.496 443.961 190.996C443.961 190.996 441.926 196.627 444.258 198.204C446.645 199.818 448.973 196.646 450.859 194.903C453.779 192.184 456.479 189.283 458.959 186.203C461.78 174.993 467.881 166.092 477.261 159.5C482.604 155.712 487.804 153.709 494.063 155.496C499.461 157.037 503.364 160.202 503.964 164C504.382 166.643 504.182 169.244 503.364 171.801C500.615 180.648 497.515 189.349 494.063 197.904C501.967 194.013 508.461 186.996 513.565 180.802C514.365 181.602 515.165 182.402 515.965 183.202C516.608 183.845 516.283 184.996 514.765 186.803C508.448 194.323 500.445 202.115 491.961 206.996C486.961 214.996 483.505 222.417 477.461 227.996C470.961 233.996 463.461 237.754 457.961 236.496C454.961 235.81 450.461 231.996 450.461 226.496C450.461 220.285 455.556 216.806 461.06 214.106C467.435 211.147 473.535 209.838 479.961 206.996C481.906 203.566 483.807 198.374 485.062 194.603L484.461 193.996C480.685 202.128 473.211 206.996 464.961 206.996C459.961 206.996 457.961 200.996 457.759 195.804C454.287 201.381 449.097 206.996 442.961 206.996C435.364 206.887 432.37 199.496 433.757 191.603C436.262 182.688 439.362 173.987 443.058 165.5C442.858 165.2 442.658 164.9 442.458 164.6C437.709 167.647 433.609 171.448 430.156 176.001C427.32 179.84 424.72 183.841 422.356 188.003C418.951 193.996 414.539 206.996 412.039 206.996C409.539 206.996 403.039 205.496 404.054 197.604C401.067 201.69 398.539 204.496 393.539 205.996C388.256 207.604 383.539 207.996 381.551 201.804C380.876 199.255 380.476 196.654 380.351 194.003C376.991 199.364 372.539 204.649 366.85 206.305C361.039 207.996 355.269 207.056 354.548 199.404C354.039 193.996 355.039 189.496 356.539 182.602L359.539 167.496L357.461 165.496L346.747 182.602C342.279 190.827 336.578 198.128 329.646 204.504C322.539 209.496 313.835 206.998 313.144 195.204C309.707 200.245 305.539 204.496 299.643 206.305C292.539 207.996 287.941 206.579 287.941 197.604C287.941 191.996 288.539 187.496 290.642 181.102C292.445 176.492 295.539 166.996 295.539 166.996L294.842 166.4C293.373 167.301 292.539 167.996 291.039 169.496C280.945 179.59 273.521 191.728 267.539 204.805C265.727 208.767 258.443 206.876 257.338 203.004C257.208 202.547 256.577 201.218 257.338 198.804C265.142 174.09 273.642 148.988 282.039 124.496Z" fill="#FDBF43"/>
<path fill-rule="evenodd" clip-rule="evenodd" d="M332.577 135.799C337.386 134.139 343.676 139.596 338.878 147.2C336.337 150.831 332.41 152.697 328.976 150.5C325.323 148.163 325.836 143.265 328.676 139.399C329.705 138 330.617 136.475 332.577 135.799Z" fill="#FDBF43"/>
<path fill-rule="evenodd" clip-rule="evenodd" d="M398.147 137.299C402.956 135.639 409.247 141.096 404.448 148.7C401.907 152.331 397.98 154.197 394.547 152C390.894 149.663 391.406 144.765 394.247 140.899C395.275 139.5 396.188 137.975 398.147 137.299Z" fill="#FDBF43"/>
<path fill-rule="evenodd" clip-rule="evenodd" d="M492.731 163.093C493.404 162.842 494.148 163.091 493.919 163.926C490.227 177.357 482.704 188.462 471.349 197.241C470.714 197.732 468.787 198.67 468.974 197.241C471.131 180.952 476.211 169.278 492.731 163.093Z" fill="#FDFEFF"/>
<path fill-rule="evenodd" clip-rule="evenodd" d="M476.761 214.133C477.459 213.837 478.109 214.036 477.931 214.711C475.553 222.553 470.483 227.852 462.72 230.609C460.722 231.125 457.634 231.379 457.162 229.742C456.383 227.044 457.913 223.672 460.965 221.938C465.919 219.123 471.386 216.403 476.761 214.133Z" fill="#FDFEFF"/>
</g>
<defs>
<clipPath id="clip0_5_92">
<rect width="516" height="237" fill="white"/>
</clipPath>
</defs>
</svg>
