<svg width="103" height="51" viewBox="0 0 103 51" fill="none" xmlns="http://www.w3.org/2000/svg">
<g clip-path="url(#clip0_50_86)">
<path d="M153.004 -46.3164H-49.3633V99.3979H153.004V-46.3164Z" fill="white"/>
<path fill-rule="evenodd" clip-rule="evenodd" d="M23.7185 4.8662C23.8271 4.85982 23.9279 4.88514 24.021 4.94251C30.0916 8.44275 36.1442 11.9679 42.1787 15.5183C36.084 19.0903 29.981 22.6493 23.8697 26.1957C23.8193 26.2295 23.7689 26.2295 23.7185 26.1957C17.6397 22.6364 11.5536 19.0859 5.45996 15.5438C11.5474 11.984 17.6336 8.42472 23.7185 4.8662Z" fill="#389FF8"/>
<path fill-rule="evenodd" clip-rule="evenodd" d="M20.1887 11.1211C24.3594 13.0114 28.5121 14.9435 32.6467 16.9174C31.828 17.4445 30.9958 17.9531 30.15 18.4427C29.4479 18.1482 28.7586 17.8261 28.0821 17.4766C27.0104 18.1059 25.9428 18.7414 24.8793 19.3833C25.2267 19.8182 25.5545 20.2674 25.8629 20.7308C25.9124 20.7947 25.9292 20.8625 25.9133 20.934C25.0894 21.4256 24.2656 21.9171 23.4419 22.4087C21.2352 19.3283 19.058 16.2267 16.9102 13.1041C16.9342 13.0544 16.9678 13.0119 17.011 12.9769C18.0898 12.3826 19.149 11.7641 20.1887 11.1211Z" fill="#FDFEFF"/>
<path fill-rule="evenodd" clip-rule="evenodd" d="M21.1953 14.2217C22.6269 14.8153 24.0559 15.4593 25.4824 16.1539C24.8538 16.5642 24.2149 16.9624 23.5659 17.3487C23.5155 17.3826 23.4649 17.3826 23.4145 17.3487C22.6816 16.2972 21.9419 15.2548 21.1953 14.2217Z" fill="#389FF8"/>
<path fill-rule="evenodd" clip-rule="evenodd" d="M42.3825 16.1035C42.4499 19.6118 42.4835 23.137 42.4835 26.6793C42.475 30.2045 42.4667 33.7298 42.4582 37.255C36.3897 40.8309 30.3203 44.4069 24.2502 47.9833C24.2025 47.9627 24.1689 47.9288 24.1492 47.8816C24.1156 40.8482 24.1156 33.8145 24.1492 26.7809C30.2426 23.2397 36.3203 19.6806 42.3825 16.1035Z" fill="#389FF8"/>
<path fill-rule="evenodd" clip-rule="evenodd" d="M5.20526 16.1543C11.311 19.6766 17.4055 23.2187 23.4891 26.7809C23.531 33.8653 23.5227 40.9496 23.4638 48.034C17.415 44.3961 11.3373 40.803 5.23056 37.2548C5.20526 30.2214 5.19695 23.1877 5.20526 16.1543Z" fill="#389FF8"/>
<path fill-rule="evenodd" clip-rule="evenodd" d="M38.952 21.6455C39.0193 26.1962 39.0193 30.7552 38.952 35.3228C38.1241 35.7951 37.3087 36.2865 36.5059 36.7972C36.4891 34.2551 36.4721 31.7127 36.4553 29.1706C35.3965 31.9238 34.3627 34.6862 33.3535 37.4582C32.3984 35.7918 31.4318 34.1309 30.4534 32.4755C30.4366 35.1024 30.4198 37.7294 30.4029 40.3565C29.5411 40.8712 28.6754 41.3798 27.8054 41.8818C27.738 37.2889 27.738 32.6958 27.8054 28.1028C28.6543 27.6156 29.4948 27.1156 30.3272 26.6029C30.3907 26.553 30.4581 26.536 30.5291 26.5521C31.4601 28.1664 32.3847 29.7849 33.3031 31.4076C34.2579 28.7152 35.2077 26.0204 36.1529 23.3234C37.0975 22.7779 38.0307 22.2185 38.952 21.6455Z" fill="#FDFEFF"/>
<path fill-rule="evenodd" clip-rule="evenodd" d="M11.6635 23.0693C12.5892 23.6544 13.5222 24.2307 14.4629 24.7981C14.505 29.6285 14.4965 34.4587 14.4378 39.289C13.5298 38.7466 12.6219 38.2043 11.7141 37.6619C11.6635 32.7979 11.6467 27.9336 11.6635 23.0693Z" fill="white"/>
<path fill-rule="evenodd" clip-rule="evenodd" d="M53.4385 4.86523C54.3354 4.86523 55.2518 4.86523 56.1487 4.86523C56.1487 11.7076 56.1487 18.7871 56.1487 25.6295C55.2518 25.6295 54.3354 25.6295 53.4385 25.6295C53.4385 18.7871 53.4385 11.7076 53.4385 4.86523Z" fill="black"/>
<path fill-rule="evenodd" clip-rule="evenodd" d="M77.2891 4.88163H79.9993L86.3455 22.0092L92.8279 4.88163L95.5382 4.86523C95.5382 11.7348 95.5382 18.7602 95.5382 25.6297C94.6758 25.6297 93.6904 25.6297 92.8279 25.6297V10.5117L87.7688 25.6295H85.0585L79.9993 10.5117V25.6297H77.2891V4.88163Z" fill="black"/>
<path fill-rule="evenodd" clip-rule="evenodd" d="M75.1211 25.6297H72.4108C71.8693 23.8121 70.2426 19.9795 70.2426 19.9795H63.1959C63.1959 19.9795 61.4898 23.7483 61.0421 25.6297H58.3174L65.3641 4.86523L68.0744 4.86542L75.1211 25.6297Z" fill="black"/>
<path fill-rule="evenodd" clip-rule="evenodd" d="M66.6492 8.50879C67.8564 11.4659 68.8733 14.5017 69.6999 17.6159C67.7124 17.6159 65.7248 17.6159 63.7373 17.6159C64.6246 14.5527 65.5953 11.5169 66.6492 8.50879Z" fill="#FDFEFF"/>
<path fill-rule="evenodd" clip-rule="evenodd" d="M56.1626 27.542C56.1626 27.542 57.3231 27.877 57.8254 28.2888C57.9458 28.4103 58.0598 28.5438 57.9694 28.817C57.9694 28.817 55.9651 34.4977 55.0064 37.4152C55.0244 37.4699 55.0425 37.5245 55.0606 37.5792C55.8962 36.2626 56.9263 35.1149 58.1506 34.1363C58.8728 33.5589 59.7763 33.6438 60.4087 34.1902C60.5612 34.3221 60.8604 34.5545 60.7527 34.792L59.2342 38.9259C59.0226 39.5649 58.6029 40.7699 59.1264 40.9674C59.65 41.1648 60.1315 40.7701 60.499 40.421C61.2217 39.7339 61.9445 38.8349 62.3248 37.907C62.3248 37.907 63.2826 35.1016 63.6801 33.6445C63.7797 33.2795 64.6421 33.2842 65.1981 33.6445C65.3434 33.7742 65.4937 33.8919 65.4149 34.1363L63.4803 39.017C63.2093 39.6545 62.9478 40.8388 63.6801 41.0767C64.1591 41.2322 64.4143 40.7856 64.7644 40.4996C66.1906 38.7438 67.4554 36.7402 68.5592 34.5734C67.7976 33.5921 67.8699 32.6631 68.776 31.7865C69.1719 31.4581 69.7472 31.7069 70.1313 32.1143C70.2939 32.2868 70.3398 32.5276 70.2939 32.7154C70.2096 33.0602 70.1187 33.3664 70.2397 33.7538C70.4394 34.3929 71.0945 34.5122 71.595 34.792C72.0749 35.0854 72.3649 35.5581 72.1913 36.049C71.6111 37.6884 70.0894 41.2938 71.0691 41.2938C72.0487 41.2938 72.9663 40.0188 72.9663 40.0188C72.9663 40.0188 73.6014 39.0727 74.3214 37.742C74.8634 36.7402 75.7669 33.7348 75.7669 33.7348C75.8572 33.3706 76.8611 33.3416 77.3413 33.5899C77.5811 33.7137 77.6326 33.9514 77.5582 34.1909C76.9034 36.2992 76.3252 38.4305 75.8234 40.5849C75.7515 40.8942 75.8753 41.0067 76.0944 41.0767C76.4896 41.2027 77.2172 40.7428 77.6641 40.292C78.286 39.5846 78.4771 39.2902 79.2387 37.6884C79.8834 36.3328 80.6313 33.9724 80.6313 33.9724C80.7216 33.4259 81.6268 33.5086 82.0578 33.9724C82.3113 34.2452 82.2697 34.3215 82.2204 34.5188C81.9062 35.777 80.6313 38.5616 80.6313 38.5616C81.5368 36.9746 83.1981 35.2087 84.4972 33.9177C85.4469 33.066 86.3324 33.1207 87.1536 34.0816C87.3166 34.2724 87.2546 34.5545 87.1536 34.8467C86.5939 36.467 85.8711 38.1063 85.4194 39.6545C85.4194 39.6545 85.0517 40.6801 85.4731 40.9674C85.9044 41.2614 86.325 40.6836 86.6658 40.3661C87.1934 39.8709 87.6812 39.3425 88.1293 38.7815C88.639 36.7397 89.7414 35.1184 91.4362 33.9177C92.4016 33.2278 93.3412 32.8629 94.4721 33.1884C95.4474 33.4691 96.1526 34.0456 96.261 34.7374C96.3365 35.2188 96.3004 35.6925 96.1526 36.1583C95.6559 37.7697 95.0958 39.3545 94.4721 40.9127C95.9002 40.204 97.0736 38.9259 97.9958 37.7977C98.1403 37.9434 98.2849 38.0892 98.4294 38.2349C98.5456 38.352 98.4869 38.5616 98.2126 38.8908C97.0712 40.2605 95.6252 41.6797 94.0923 42.5688C93.1888 44.0259 92.5644 45.3776 91.4723 46.3938C90.2979 47.4866 88.9428 48.1711 87.949 47.942C87.4069 47.817 86.5939 47.1224 86.5939 46.1206C86.5939 44.9893 87.5144 44.3556 88.5089 43.8638C89.6608 43.3249 90.763 43.0864 91.924 42.5688C92.2755 41.944 92.619 40.9983 92.8457 40.3115L92.7371 40.2009C92.0549 41.6821 90.7044 42.5688 89.2138 42.5688C88.3104 42.5688 87.949 41.4759 87.9125 40.5302C87.2851 41.546 86.3474 42.5688 85.2387 42.5688C83.8661 42.5489 83.3251 41.2027 83.5757 39.7651C84.0283 38.1412 84.5884 36.5564 85.2562 35.0106C85.2201 34.9559 85.184 34.9013 85.1478 34.8467C84.2898 35.4016 83.549 36.094 82.9251 36.9233C82.4126 37.6225 81.9429 38.3513 81.5157 39.1093C80.9005 40.2009 80.1033 42.5688 79.6516 42.5688C79.1999 42.5688 78.0254 42.2956 78.2088 40.8581C77.6691 41.6023 77.2123 42.1134 76.3089 42.3866C75.3544 42.6795 74.5021 42.7509 74.1429 41.6231C74.0209 41.1588 73.9486 40.6851 73.9261 40.2022C73.319 41.1787 72.5145 42.1413 71.4866 42.4429C70.4367 42.7509 69.3941 42.5797 69.2638 41.1859C69.1719 40.2009 69.3526 39.3813 69.6236 38.1256L70.1656 35.3741L69.7902 35.0098L67.8543 38.1256C67.047 39.6237 66.0169 40.9535 64.7644 42.1149C63.4803 43.0241 61.9076 42.5691 61.7828 40.421C61.1618 41.3391 60.4087 42.1134 59.3434 42.4429C58.0598 42.7509 57.229 42.4928 57.229 40.8581C57.229 39.8366 57.337 39.017 57.717 37.8524C58.0428 37.0127 58.6018 35.2831 58.6018 35.2831L58.4759 35.1745C58.2105 35.3386 58.0598 35.4652 57.7887 35.7384C55.9649 37.577 54.6235 39.7878 53.5426 42.1697C53.2152 42.8914 51.8991 42.5469 51.6995 41.8417C51.676 41.7584 51.562 41.5164 51.6995 41.0767C53.1095 36.5752 54.6454 32.003 56.1626 27.542Z" fill="#FDBF43"/>
<path fill-rule="evenodd" clip-rule="evenodd" d="M65.2946 29.6003C66.1635 29.298 67.3 30.2919 66.4331 31.6769C65.9739 32.3383 65.2644 32.6782 64.6439 32.278C63.9839 31.8523 64.0766 30.9602 64.5897 30.256C64.7756 30.0012 64.9404 29.7235 65.2946 29.6003Z" fill="#FDBF43"/>
<path fill-rule="evenodd" clip-rule="evenodd" d="M77.1421 29.8738C78.011 29.5714 79.1477 30.5654 78.2806 31.9504C77.8215 32.6117 77.1119 32.9516 76.4916 32.5514C75.8316 32.1258 75.9241 31.2336 76.4374 30.5295C76.6232 30.2747 76.7881 29.9969 77.1421 29.8738Z" fill="#FDBF43"/>
<path fill-rule="evenodd" clip-rule="evenodd" d="M94.2314 34.5726C94.353 34.5269 94.4874 34.5723 94.446 34.7244C93.7789 37.1707 92.4196 39.1934 90.3679 40.7925C90.2532 40.8819 89.905 41.0527 89.9388 40.7925C90.3286 37.8255 91.2464 35.6992 94.2314 34.5726Z" fill="white"/>
<path fill-rule="evenodd" clip-rule="evenodd" d="M91.3461 43.869C91.4722 43.8151 91.5897 43.8513 91.5575 43.9743C91.1279 45.4026 90.2118 46.3678 88.8091 46.87C88.4481 46.964 87.8902 47.0102 87.8049 46.7121C87.6641 46.2206 87.9406 45.6065 88.492 45.2906C89.3871 44.7779 90.3749 44.2825 91.3461 43.869Z" fill="white"/>
</g>
<defs>
<clipPath id="clip0_50_86">
<rect width="103" height="51" rx="8" fill="white"/>
</clipPath>
</defs>
</svg>
